<svg viewBox="0 0 1179 179" fill="none" xmlns="http://www.w3.org/2000/svg">
<path d="M0.75 89.75C0.75 72.75 4.58333 57.5 12.25 44C19.9167 30.3333 30.3333 19.6667 43.5 12C56.8333 4.33333 71.5833 0.499992 87.75 0.499992C106.75 0.499992 123.333 5.08333 137.5 14.25C151.667 23.4167 162 36.4167 168.5 53.25H141.25C136.417 42.75 129.417 34.6667 120.25 29C111.25 23.3333 100.417 20.5 87.75 20.5C75.5833 20.5 64.6667 23.3333 55 29C45.3333 34.6667 37.75 42.75 32.25 53.25C26.75 63.5833 24 75.75 24 89.75C24 103.583 26.75 115.75 32.25 126.25C37.75 136.583 45.3333 144.583 55 150.25C64.6667 155.917 75.5833 158.75 87.75 158.75C100.417 158.75 111.25 156 120.25 150.5C129.417 144.833 136.417 136.75 141.25 126.25H168.5C162 142.917 151.667 155.833 137.5 165C123.333 174 106.75 178.5 87.75 178.5C71.5833 178.5 56.8333 174.75 43.5 167.25C30.3333 159.583 19.9167 149 12.25 135.5C4.58333 122 0.75 106.75 0.75 89.75ZM281.365 178.75C265.199 178.75 250.449 175 237.115 167.5C223.782 159.833 213.199 149.25 205.365 135.75C197.699 122.083 193.865 106.75 193.865 89.75C193.865 72.75 197.699 57.5 205.365 44C213.199 30.3333 223.782 19.75 237.115 12.25C250.449 4.58332 265.199 0.749989 281.365 0.749989C297.699 0.749989 312.532 4.58332 325.865 12.25C339.199 19.75 349.699 30.25 357.365 43.75C365.032 57.25 368.865 72.5833 368.865 89.75C368.865 106.917 365.032 122.25 357.365 135.75C349.699 149.25 339.199 159.833 325.865 167.5C312.532 175 297.699 178.75 281.365 178.75ZM281.365 159C293.532 159 304.449 156.167 314.115 150.5C323.949 144.833 331.615 136.75 337.115 126.25C342.782 115.75 345.615 103.583 345.615 89.75C345.615 75.75 342.782 63.5833 337.115 53.25C331.615 42.75 324.032 34.6667 314.365 29C304.699 23.3333 293.699 20.5 281.365 20.5C269.032 20.5 258.032 23.3333 248.365 29C238.699 34.6667 231.032 42.75 225.365 53.25C219.865 63.5833 217.115 75.75 217.115 89.75C217.115 103.583 219.865 115.75 225.365 126.25C231.032 136.75 238.699 144.833 248.365 150.5C258.199 156.167 269.199 159 281.365 159ZM535.898 177H513.148L421.648 38.25V177H398.898V2.5H421.648L513.148 141V2.5H535.898V177ZM681.93 2.74999V21.25H634.43V177H611.68V21.25H563.93V2.74999H681.93ZM812.934 138.25H736.934L722.934 177H698.934L761.934 3.75H788.184L850.934 177H826.934L812.934 138.25ZM806.434 119.75L774.934 31.75L743.434 119.75H806.434ZM869.891 89.75C869.891 72.75 873.724 57.5 881.391 44C889.057 30.3333 899.474 19.6667 912.641 12C925.974 4.33333 940.724 0.499992 956.891 0.499992C975.891 0.499992 992.474 5.08333 1006.64 14.25C1020.81 23.4167 1031.14 36.4167 1037.64 53.25H1010.39C1005.56 42.75 998.557 34.6667 989.391 29C980.391 23.3333 969.557 20.5 956.891 20.5C944.724 20.5 933.807 23.3333 924.141 29C914.474 34.6667 906.891 42.75 901.391 53.25C895.891 63.5833 893.141 75.75 893.141 89.75C893.141 103.583 895.891 115.75 901.391 126.25C906.891 136.583 914.474 144.583 924.141 150.25C933.807 155.917 944.724 158.75 956.891 158.75C969.557 158.75 980.391 156 989.391 150.5C998.557 144.833 1005.56 136.75 1010.39 126.25H1037.64C1031.14 142.917 1020.81 155.833 1006.64 165C992.474 174 975.891 178.5 956.891 178.5C940.724 178.5 925.974 174.75 912.641 167.25C899.474 159.583 889.057 149 881.391 135.5C873.724 122 869.891 106.75 869.891 89.75ZM1178.76 2.74999V21.25H1131.26V177H1108.51V21.25H1060.76V2.74999H1178.76Z" fill="#AEAEAE"/>
</svg>
