<svg xmlns="http://www.w3.org/2000/svg" x="0px" y="0px"
width="24" height="24"
viewBox="0 0 172 172"
style=" fill:#000000;"><g fill="none" fill-rule="nonzero" stroke="none" stroke-width="1" stroke-linecap="butt" stroke-linejoin="miter" stroke-miterlimit="10" stroke-dasharray="" stroke-dashoffset="0" font-family="none" font-weight="none" font-size="none" text-anchor="none" style="mix-blend-mode: normal"><path d="M0,172v-172h172v172z" fill="none"></path><g fill="#ffffff"><path d="M28.66667,28.66667c-7.91917,0 -14.33333,6.41417 -14.33333,14.33333v12.41569l7.16667,4.49316l7.16667,4.49316l57.33333,35.93132l57.33333,-35.69336l7.16667,-4.46517l7.16667,-4.45117v-12.72363c0,-7.91917 -6.41417,-14.33333 -14.33333,-14.33333zM28.66667,43h114.66667v5.51497l-57.33333,35.67936l-57.33333,-35.93132zM14.33333,72.32455v56.67545c0,7.91917 6.41417,14.33333 14.33333,14.33333h114.66667c7.91917,0 14.33333,-6.41417 14.33333,-14.33333v-56.39551l-14.33333,8.91634v47.47917h-114.66667v-47.68913z"></path></g></g></svg>