<?xml version="1.0" encoding="utf-8"?>
<!-- Generator: Adobe Illustrator 26.0.2, SVG Export Plug-In . SVG Version: 6.00 Build 0)  -->
<svg version="1.1" id="Layer_1" xmlns="http://www.w3.org/2000/svg" xmlns:xlink="http://www.w3.org/1999/xlink" x="0px" y="0px"
	 viewBox="0 0 1080 1080" style="enable-background:new 0 0 1080 1080;" xml:space="preserve">
<style type="text/css">
	.st0{fill:#FFFFFF;}
	.st1{fill:#EA5B0C;}
	.st2{font-family:'Poppins-Bold';}
	.st3{font-size:210.5034px;}
	.st4{font-family:'Poppins-SemiBold';}
	.st5{font-size:70.8632px;}
	.st6{letter-spacing:14;}
	.st7{fill:#9D9D9C;}
	.st8{fill:#3E3E3E;}
</style>
<path d="M805.51,985.19c-5.26,0-10.33-1.33-14.86-3.87c-0.85,0.07-1.7,0.11-2.55,0.11c-2.99,0-5.96-0.44-8.83-1.31l-35.02-10.63
	c-7.9-2.4-14.56-7.99-18.29-15.36c-2.91-5.41-24.91-34.46-34.54-46.23c-5.03-6.15-9.07-10.57-13.74-15.68
	c-2.63-2.89-5.34-5.85-8.49-9.41c-0.02-0.02-0.26-0.24-0.26-0.24c-2.86-2.66-9.57-8.9-12.19-19.26c-1.09-4.31-1.78-5-1.86-5.07
	c-0.08-0.06-0.88-0.58-5.2-0.8c-17.98-0.88-33.39-13.98-39.21-32.62h-2.65c-2.64,0-5.25-0.34-7.79-1.01
	c-2.54,0.67-5.15,1.01-7.8,1.01h-9.92c-3.99,0-7.93-0.79-11.59-2.29c-3.66,1.51-7.6,2.29-11.59,2.29h-28.7
	c-9.57,0-18.13-4.4-23.7-11.33c-5.61,6.92-14.17,11.33-23.63,11.33h-1.77c-0.31,1.2-0.69,2.38-1.15,3.54
	c-6.75,17.13-21.3,28.27-37.95,29.09c-4.32,0.21-5.13,0.74-5.21,0.8c-0.07,0.06-0.77,0.76-1.86,5.08
	c-2.63,10.36-9.33,16.59-12.19,19.26c0,0-0.23,0.21-0.26,0.24c-3.12,3.53-5.82,6.48-8.43,9.34l-0.05,0.06
	c-4.68,5.12-8.71,9.55-13.75,15.7c-9.63,11.77-31.65,40.84-34.57,46.28c-3.71,7.33-10.36,12.9-18.27,15.3l-35.02,10.63
	c-2.87,0.87-5.84,1.31-8.83,1.31c-0.85,0-1.7-0.04-2.55-0.11c-4.52,2.54-9.6,3.87-14.86,3.87c-7.42,0-14.58-2.71-20.14-7.63
	l-11.8-10.44c-3.06-2.71-5.5-5.93-7.25-9.57c-6.01-5.87-9.33-13.93-9.15-22.37c0.19-8.81,1.22-18.77,2.13-27.56l7.57,0.71
	l-7.56-0.78c0.64-6.21,1.25-12.08,1.37-15.7c0.22-6.64,2.65-13.12,6.85-18.26l12.88-15.75c4.05-4.95,9.45-8.44,15.62-10.11
	c1.89-1.13,5.86-6.57,7.78-9.22c2.13-2.92,4.33-5.94,6.92-8.86l5.15-5.8c8.07-9.09,16.42-18.48,24.72-27.75
	c0.28-0.31,0.55-0.62,0.82-0.93c0,0,0.05-0.06,0.05-0.06c0.49-0.56,0.98-1.12,1.48-1.68c1.3-1.45,2.73-2.76,4.28-3.92v-44.61
	c0-1.36,0.09-2.72,0.27-4.07l-1.84,5.43c-4.18,12.35-15.75,20.65-28.79,20.65h-37.68c-9.9,0-19.2-4.84-24.89-12.94
	c-0.32-0.46-0.63-0.92-0.92-1.4c-16.4,10.22-35.43,15.39-56.71,15.39c-19.56,0-37.52-4.55-53.38-13.52
	c-16.19-9.15-28.98-22.04-38.03-38.33c-8.83-15.88-13.3-33.95-13.3-53.71c0-19.72,4.46-37.81,13.26-53.74
	c9.04-16.38,21.85-29.34,38.07-38.5c15.87-8.97,33.83-13.52,53.38-13.52c24.12,0,45.37,6.69,63.16,19.87
	c13.73,10.18,24.07,23.18,30.88,38.78l6.38-17.64c-8.74-3.77-17.52-8.82-26.19-15.06c-15.23-10.97-25.95-22.73-28.87-26.07
	c-0.43-0.49-0.86-1.02-1.29-1.59c-0.14-0.16-0.28-0.32-0.42-0.48C170.27,493.48,128.33,437.2,96.6,387.16
	c-24.66-38.88-35.84-62.59-39.69-71.47c-3.52-5.7-7.47-15.09-7.2-28.22c0.66-31.05,24.26-67.44,72.15-111.24
	c42.74-39.09,81.78-58.91,116.05-58.91c24.74,0,39.95,10.04,46.99,16.27c72.13,50.89,141,110.51,204.7,177.22
	c0.23,0.25,0.45,0.49,0.67,0.74c1.21,1.19,2.33,2.47,3.33,3.84c3.45,4.73,6.64,9.15,9.6,13.25c4.19,5.82,7.78,10.79,11,15.11
	c15.46,20.71,21.02,46.83,15.27,71.67c-2.97,12.81-8.61,26.19-16.81,39.86l33.3,37.87l32.07-36.47
	c-10.11-15.65-16.93-30.91-20.3-45.43c-5.75-24.84-0.18-50.96,15.27-71.67c3.23-4.33,6.83-9.32,11-15.1
	c2.96-4.11,6.15-8.53,9.6-13.25c0.99-1.36,2.1-2.64,3.31-3.82c0.22-0.26,0.44-0.51,0.68-0.76c63.7-66.7,132.57-126.32,204.7-177.21
	c7.04-6.22,22.24-16.27,46.99-16.27c34.27,0,73.31,19.82,116.05,58.91c47.89,43.8,71.49,80.19,72.15,111.24
	c0.28,13.14-3.68,22.52-7.2,28.23c-6.91,15.93-44.76,95.72-164.33,238.74c-0.13,0.16-0.27,0.32-0.41,0.47
	c-0.44,0.58-0.86,1.1-1.29,1.59c-1.09,1.25-2.98,3.35-5.56,5.98h37.96c11.81,0,22.64,6.92,27.59,17.64l0.93,2.02l0.89-1.94
	c4.94-10.76,15.79-17.71,27.63-17.71h40.42c10.54,0,20.49,5.59,25.97,14.59c5.48,9,5.88,20.41,1.04,29.77l-47.76,92.37v41.44
	c0,16.76-13.64,30.4-30.4,30.4h-36c-16.76,0-30.4-13.64-30.4-30.4v-41.44l-8.61-16.65c-0.29,2.82-0.97,5.56-2.02,8.17
	c5.4,5.6,8.49,13.1,8.49,21.09v28.84c0,16.76-13.64,30.4-30.4,30.4h-83.86c-0.02,0.08-0.05,0.16-0.07,0.24
	c1.24,4.11,1.86,8.46,1.86,12.97c0,2.33-0.18,4.64-0.53,6.91c3.66,2.98,6.33,6.04,8.13,8.08l0.13,0.15
	c0.25,0.28,0.49,0.56,0.74,0.84c8.32,9.29,16.66,18.67,24.72,27.75l5.15,5.8c2.59,2.92,4.79,5.94,6.92,8.86
	c1.93,2.64,5.89,8.09,7.79,9.22c6.17,1.66,11.57,5.15,15.62,10.11l12.88,15.75c4.2,5.14,6.64,11.62,6.85,18.26
	c0.12,3.63,0.72,9.49,1.37,15.71c0.92,8.85,1.95,18.81,2.13,27.63c0.18,8.45-3.14,16.5-9.15,22.37c-1.75,3.65-4.18,6.86-7.25,9.57
	l-11.8,10.44C820.08,982.47,812.93,985.19,805.51,985.19z"/>
<path class="st0" d="M858.52,547.33c0.4-0.46,0.78-0.94,1.14-1.42c0.15-0.17,0.31-0.34,0.46-0.52
	c119.69-143.17,156.63-221.62,163.41-237.41c3.12-4.89,6.59-12.97,6.35-24.52c-0.61-28.86-23.4-63.47-69.68-105.79
	c-41.29-37.77-78.61-56.92-110.92-56.92c-23.01,0-36.7,9.63-42.26,14.63c-71.86,50.66-140.46,110.04-203.94,176.5
	c-0.23,0.24-0.43,0.49-0.65,0.74c-0.98,0.93-1.89,1.96-2.7,3.08c-3.44,4.71-6.62,9.12-9.57,13.21c-4.19,5.81-7.81,10.83-11.08,15.21
	c-14.12,18.91-19.21,42.76-13.96,65.41c3.52,15.18,11.01,31.11,22.39,47.7c-0.6,0.77-1.17,1.48-1.68,2.06l-39.89,45.36l-39.93-45.4
	c-0.64-0.72-1.41-1.71-2.22-2.76c-0.15-0.2-0.31-0.4-0.47-0.61c9.34-14.61,15.6-28.69,18.72-42.18c5.24-22.66,0.16-46.5-13.96-65.41
	c-3.27-4.38-6.89-9.4-11.08-15.21c-2.95-4.09-6.13-8.5-9.57-13.22c-0.82-1.12-1.73-2.16-2.72-3.09c-0.21-0.24-0.41-0.48-0.63-0.72
	c-63.47-66.46-132.08-125.84-203.94-176.5c-5.55-5-19.24-14.63-42.26-14.63c-32.31,0-69.63,19.15-110.92,56.92
	c-46.27,42.32-69.06,76.93-69.68,105.79c-0.24,11.55,3.23,19.63,6.35,24.52c6.78,15.8,43.72,94.24,163.41,237.41
	c0.15,0.18,0.3,0.34,0.46,0.52c0.36,0.48,0.73,0.96,1.14,1.42c2.79,3.19,13.02,14.41,27.59,24.91c10.5,7.56,21,13.19,31.41,16.86
	l-17.31,47.84c0.27-2.69,0.08-5.43-0.63-8.11c-5.54-21.06-16.82-38.02-33.52-50.4c-16.45-12.2-36.17-18.38-58.63-18.38
	c-18.23,0-34.93,4.22-49.64,12.53c-14.97,8.47-26.8,20.43-35.16,35.56c-8.17,14.8-12.31,31.64-12.31,50.07
	c0,18.45,4.15,35.28,12.34,50.02c8.36,15.04,20.18,26.96,35.13,35.4c14.7,8.32,31.41,12.53,49.64,12.53
	c22.43,0,42.13-6.13,58.56-18.22c0.54-0.4,1.06-0.81,1.59-1.22c0.61,3.08,1.85,6.04,3.7,8.69c4.27,6.08,11.23,9.71,18.67,9.71h37.68
	c9.77,0,18.46-6.23,21.6-15.49l3.6-10.62h16c-2.05,3.42-3.23,7.42-3.23,11.69v48.75c-2.29,1.22-4.41,2.84-6.23,4.86
	c-0.48,0.53-0.95,1.07-1.42,1.61c-0.31,0.35-0.61,0.7-0.93,1.05c-8.27,9.23-16.62,18.63-24.7,27.73l-5.15,5.8
	c-2.35,2.64-4.44,5.51-6.46,8.29c-3.6,4.93-8.07,11.07-11.73,12.02c-4.69,1.21-8.86,3.89-11.93,7.64l-12.88,15.75
	c-3.17,3.88-4.98,8.69-5.14,13.69c-0.13,3.91-0.75,9.93-1.41,16.3c-0.89,8.64-1.91,18.44-2.09,26.95
	c-0.15,6.9,2.84,13.33,7.86,17.69c1.28,3.13,3.28,6.02,5.98,8.4l11.8,10.44c4.34,3.84,9.73,5.73,15.1,5.73
	c4.63,0,9.24-1.4,13.14-4.16c1.4,0.27,2.83,0.4,4.27,0.4c2.2,0,4.43-0.32,6.62-0.98l35.02-10.63c5.98-1.81,10.92-5.95,13.73-11.53
	c3.33-6.29,26.38-36.53,35.44-47.6c5.17-6.31,9.27-10.81,14.02-16.01c2.67-2.92,5.42-5.94,8.62-9.56c0.18-0.17,0.36-0.34,0.54-0.51
	c2.57-2.39,7.92-7.37,10-15.56c2.33-9.19,4.69-11.14,14.06-11.6c13.63-0.67,25.61-9.97,31.25-24.28c1.06-2.7,1.59-5.53,1.59-8.35
	h8.41c12.03,0,21.88-9.31,22.74-21.12c0.62-0.2,1.22-0.41,1.82-0.64c0.55,12.11,10.53,21.75,22.77,21.75h28.7
	c4.23,0,8.19-1.16,11.59-3.16c3.4,2.01,7.36,3.16,11.59,3.16h9.92c2.74,0,5.37-0.48,7.8-1.37c2.46,0.89,5.09,1.37,7.79,1.37h8.58
	c3.43,18.46,17.15,31.83,33.64,32.63c9.37,0.46,11.73,2.41,14.06,11.59c2.07,8.19,7.43,13.17,10.01,15.57
	c0.18,0.17,0.37,0.34,0.54,0.51c3.2,3.61,5.95,6.64,8.62,9.56c4.75,5.21,8.85,9.7,14.02,16.01c9.06,11.07,32.11,41.31,35.41,47.54
	c2.8,5.58,7.78,9.77,13.75,11.58l35.02,10.63c2.19,0.66,4.42,0.98,6.62,0.98c1.44,0,2.87-0.14,4.27-0.4
	c3.91,2.76,8.52,4.16,13.14,4.16c5.37,0,10.77-1.89,15.1-5.73l11.8-10.44c2.7-2.39,4.7-5.28,5.98-8.4c5.02-4.36,8-10.79,7.86-17.69
	c-0.18-8.5-1.19-18.3-2.09-26.95c-0.66-6.38-1.28-12.4-1.41-16.3c-0.16-5-1.97-9.82-5.14-13.69l-12.89-15.75
	c-3.06-3.75-7.24-6.42-11.93-7.64c-3.66-0.95-8.14-7.09-11.73-12.02c-2.02-2.77-4.11-5.64-6.46-8.29l-5.15-5.8
	c-8.08-9.09-16.43-18.5-24.7-27.73c-0.31-0.34-0.61-0.69-0.92-1.05c-2.37-2.7-5.84-6.65-10.88-9.86c0.93-3.26,1.4-6.65,1.4-10.15
	c0-4.62-0.78-9.02-2.3-13.03c1.02-2.46,1.6-5.09,1.71-7.78h90.26c12.59,0,22.8-10.21,22.8-22.8v-28.84c0-8.07-4.2-15.16-10.52-19.22
	c2.65-3.73,4.21-8.28,4.21-13.2v-27.78l23.65,45.74v43.29c0,12.59,10.21,22.8,22.8,22.8h36c12.59,0,22.8-10.21,22.8-22.8V693.2
	l48.61-94.01c3.65-7.07,3.36-15.53-0.78-22.33c-4.14-6.8-11.52-10.95-19.48-10.95h-40.42c-8.91,0-17,5.19-20.72,13.29l-7.77,16.93
	l-7.86-16.99c-3.73-8.07-11.81-13.23-20.69-13.23H855.8c-2.01,0-3.99,0.27-5.89,0.77c-1.88-0.5-3.86-0.77-5.9-0.77h-4.9
	C849.06,557.78,855.92,550.31,858.52,547.33z"/>
<g>
	<text transform="matrix(1 0 0 1 96.3146 736.4891)" class="st1 st2 st3">CAR KEY</text>
	<text transform="matrix(1 0 0 1 353.6359 794.4149)" class="st4 st5 st6">EXPERTS</text>
</g>
<g>
	<path class="st7" d="M554.08,668.16c-1.27,2.29-2.69,4.52-4.25,6.69c-3.27,4.54-7.08,8.58-11.42,12.09l20.47,35.14h0.25
		c3.41,0,6.63,0.76,9.53,2.1c5.1-5.78,10.21-11.56,15.31-17.34v-72.46L554.08,668.16z"/>
	<path class="st7" d="M346.44,813.75c-0.78,0.87-1.54,1.76-2.31,2.62c-9.96,11.12-19.87,22.3-29.79,33.46
		c-6.77,7.62-14.33,23.3-29.52,27.24l-12.88,15.75c-0.34,10.51-3.2,29.27-3.49,42.99c0,0,9.67-11.02,12.96-14.73
		c30.66-34.61,61.3-69.23,91.94-103.86h-14.83C354.09,817.22,349.95,815.94,346.44,813.75z"/>
	<path class="st7" d="M397.83,814.6c-3.17,1.67-6.77,2.62-10.6,2.62h-0.12c-34.35,38.82-68.71,77.64-103.07,116.46
		c-1.86,2.1-7.6,8.56-9.45,10.66l11.8,10.44c0,0,25.29-28.04,35.81-39.91c28-31.61,57.03-64.45,86.35-97.65h-0.14
		C404.66,817.22,401.04,816.28,397.83,814.6z"/>
	<path class="st7" d="M553.3,600.19c1.68,2.92,3.12,5.95,4.34,9.05c1.68-1.89,3.36-3.79,5.04-5.68
		c4.13-4.66,10.55-14.64,15.32-10.13c5.62,4.69-3.5,11.68-7.45,16.16c-3.2,3.63-6.4,7.25-9.6,10.88c0.98,4.77,1.48,9.7,1.48,14.77
		c0,2.75-0.15,5.46-0.45,8.12c1.97-2.24,3.94-4.47,5.91-6.69l16.09-8.03v-39.92c0-12.59,10.21-22.8,22.8-22.8h36
		c11.69,0,21.33,8.8,22.65,20.14l8.46-11.13c4.31-5.68,11.03-9.01,18.16-9.01h16.76l1.94,0.09c1.79-0.6,4.53-2.72,6.46-4.83
		c1.42-1.55-2.08-4.53-3.87-5.65c-15.42-9.75-30.57-20.37-43-31.36c-29.62-26.21-49.1-50.88-49.1-50.88
		c-2.4-3.17-4.66-6.23-6.8-9.22c-3.96-0.68-7.1,5.35-11.47,10.29l-85.19,96.87c2.57,0.94,5.06,1.99,7.46,3.18
		C537.52,580.48,546.96,589.16,553.3,600.19z"/>
	<path class="st7" d="M440.02,817.22c-3.6,0-7.08-0.85-10.2-2.41c-2.32,1.16-4.85,1.93-7.47,2.25L303.8,951.02l35.02-10.63
		c4.48-8.93,31.79-43.99,38.14-51.75c8.57-10.47,14.42-16.29,23.38-26.43c1.85-2.1,4.74-3.95,5.35-6.37
		c4.65-18.35,15.2-27.8,35.05-28.77c4.74-0.23,8.96-4.32,11.15-9.87c-0.16,0-0.31,0.01-0.47,0.01H440.02z"/>
	<path class="st7" d="M424.91,565.92h60.41c8.76,0,16.94,0.96,24.48,2.86l31.08-35.35l-51.95-59.08
		c-4.37-4.94-7.5-10.96-11.47-10.29c-2.14,2.98-4.4,6.05-6.8,9.22c0,0-19.48,24.68-49.1,50.88c-12.43,10.99-27.57,21.62-43,31.36
		c-1.78,1.12-2.11,3.58-0.68,5.13c1.93,2.11,4.1,4.01,4.83,4.83l14.47,16.2c1.66,1.87,3.31,3.74,4.97,5.61
		C402.88,575.37,412.79,565.92,424.91,565.92z"/>
	<path class="st7" d="M718.78,817.48c30.57,34.53,61.13,69.07,91.71,103.6c3.29,3.72,12.96,14.73,12.96,14.73
		c-0.29-13.72-3.15-32.48-3.49-42.99l-12.88-15.75c-15.19-3.94-22.75-19.62-29.52-27.24c-9.92-11.16-19.82-22.34-29.79-33.46
		c-2.32-2.59-4.59-5.51-7.59-7.2c-1.95,1.52-4.07,2.87-6.37,4.04C729.24,815.54,724.2,816.96,718.78,817.48z"/>
	<path class="st7" d="M652.46,817.22c-5.16,0-9.91-1.72-13.73-4.61c1.3,7.76,6.45,14.18,12.42,14.47
		c19.85,0.97,30.4,10.42,35.05,28.77c0.61,2.42,3.5,4.27,5.35,6.37c8.96,10.14,14.81,15.96,23.38,26.43
		c6.35,7.76,33.66,42.82,38.14,51.75l35.02,10.63L668.87,816.28c-2.06,0.61-4.23,0.94-6.48,0.94H652.46z"/>
	<path class="st7" d="M682.61,804.93c-1.2,2.31-2.8,4.39-4.68,6.15c31.16,35.29,62.04,70.23,91.76,103.78
		c10.52,11.88,35.81,39.91,35.81,39.91l11.8-10.44c-1.84-2.11-7.59-8.57-9.45-10.66c-34.49-38.97-68.98-77.93-103.47-116.91
		c-2.99-0.6-5.88-1.49-8.63-2.66C690.63,811.91,686.23,808.83,682.61,804.93z"/>
</g>
<g>
	<g>
		<path class="st8" d="M467.61,331.8c-52.36-54.82-120.06-117-201.94-174.57c0,0-35.19-39.15-123.29,41.43
			c-84.16,76.98-58.64,102.39-58.64,102.39s29.78,77.13,160.83,233.89c0,0,0,0,0,0l20.19-11.1l21.43-18.42l148.05-134.83
			l20.34-19.62l13.01-19.17l0.01,0.01C467.6,331.81,467.6,331.81,467.61,331.8z"/>
	</g>
	<circle class="st7" cx="275.54" cy="357.51" r="42.53"/>
	<path d="M282.54,378.52c-1.28,1.16-2.56,2.33-3.84,3.48c-3.21,2.88-7.45,2.76-10.3-0.3c-4.27-4.57-8.46-9.22-11.62-12.75
		c-1.98-2.2-2.44-4.85-1.34-7.66c0.38-0.97,1-1.84,1.89-2.65c0.14-0.13,0.29-0.26,0.45-0.39c-0.81-0.82-1.62-1.73-2.41-2.68
		c-4.08-4.91-3.69-12.32,0.9-16.88c0.12-0.12,0.25-0.24,0.38-0.36c4.51-4.11,11.51-4.27,16.27-0.38c0.86,0.71,1.58,1.5,2.28,2.27
		c0.25,0.28,0.5,0.56,0.76,0.83c0.12,0.13,0.23,0.24,0.32,0.35c0.05-0.05,0.11-0.1,0.16-0.15l0.16-0.14
		c3.32-2.95,7.53-2.77,10.49,0.45c3.62,3.95,7.33,8.02,11.33,12.44c2.91,3.22,2.7,7.53-0.51,10.48c-1.25,1.15-2.51,2.3-3.77,3.45
		c-0.96,0.88-1.93,1.75-2.89,2.63c-0.93,0.84-1.85,1.68-2.78,2.53c-0.03,0.04-0.07,0.07-0.11,0.11c-0.97,0.88-1.94,1.77-2.91,2.65
		C284.49,376.75,283.52,377.63,282.54,378.52z M265.41,358.95c-1.33,1.21-2.66,2.43-3.99,3.64c-1.17,1.07-1.21,1.74-0.17,2.89
		c3.58,3.96,7.29,8.04,11.06,12.13c0.93,1.01,1.66,1.04,2.7,0.1c3.26-2.96,6.51-5.92,9.77-8.88c3.08-2.81,6.17-5.62,9.24-8.43
		c1.05-0.96,1.09-1.63,0.14-2.68c-3.95-4.36-7.59-8.36-11.15-12.24c-0.94-1.02-1.64-1.05-2.68-0.11c-1.32,1.2-2.64,2.4-3.96,3.6
		c-0.93,0.85-6.47,5.9-6.47,5.9L265.41,358.95z M269.93,347.18c0.85-0.77,1.53-1.38,2.17-1.95c-0.35-0.36-0.68-0.73-1-1.09
		c-0.6-0.67-1.16-1.3-1.81-1.81c-2.64-2.06-6.45-1.96-8.86,0.23c-0.12,0.11-0.23,0.22-0.35,0.34c-2.5,2.64-2.57,6.55-0.16,9.3
		c0.32,0.36,0.66,0.73,0.99,1.08c0.35,0.38,0.71,0.76,1.05,1.16c0.62-0.58,1.29-1.2,2.1-1.93c0.49-0.45,0.99-0.9,1.48-1.34
		c0.49-0.45,0.98-0.89,1.47-1.34l0.21-0.19c0.45-0.41,0.9-0.82,1.35-1.23C269.03,348.01,269.48,347.59,269.93,347.18z"/>
	<path d="M226.32,316.92c-1.5,1.37-2.74,2.49-3.91,3.52c-3.06,2.73-7.4,2.6-10.09-0.3c-4.03-4.35-8.03-8.74-11.88-13.05
		c-2.5-2.8-2.33-7.09,0.41-9.78c0.22-0.22,0.45-0.43,0.68-0.64c0.18-0.16,0.35-0.32,0.53-0.48c0.17-0.15,0.34-0.31,0.51-0.46
		l5.31-4.84c2.67-2.43,5.33-4.86,7.99-7.3c-0.19-0.21-0.37-0.42-0.53-0.62l-4.62-5.11c-0.52-0.56-0.96-0.97-1.41-1.29
		c-2.72-1.97-6.29-1.81-8.7,0.38c-0.14,0.13-0.28,0.27-0.42,0.41c-2.46,2.66-2.46,6.42,0.01,9.36c2,2.39,0.72,3.89,0.27,4.29
		c-0.09,0.08-0.18,0.15-0.28,0.22c-1.91,1.36-3.52,0-4.12-0.64c-4.24-4.55-4.45-12-0.47-16.6c0.35-0.41,0.73-0.8,1.13-1.15
		c4.42-4.03,10.88-4.45,15.7-1.04c1.13,0.8,2.02,1.75,2.68,2.49l4.67,5.21c0.01,0.01,0.02,0.03,0.03,0.04
		c0.11,0.13,0.2,0.22,0.26,0.29c0.04-0.03,0.1-0.08,0.16-0.14c0.03-0.03,0.06-0.06,0.09-0.09c0.07-0.06,0.13-0.13,0.2-0.19
		c3.26-2.97,7.52-2.7,10.6,0.68c3.26,3.57,7.11,7.79,10.96,12.05c3.11,3.44,2.93,7.67-0.46,10.79c-1.23,1.13-2.47,2.26-3.7,3.39
		c-0.96,0.87-1.92,1.74-2.88,2.61c-0.93,0.84-1.85,1.68-2.78,2.52c-0.03,0.03-0.06,0.06-0.09,0.09c-0.98,0.89-1.95,1.78-2.93,2.68
		C228.28,315.13,227.3,316.03,226.32,316.92z M233.92,302.34c1.21-1.1,2.42-2.2,3.62-3.31c1.44-1.31,1.47-1.86,0.19-3.27
		c-3.38-3.72-7-7.71-10.6-11.65c-1.27-1.39-1.85-1.41-3.27-0.12l-9.21,8.38c-3.07,2.79-6.14,5.59-9.21,8.39
		c-1.44,1.31-1.47,1.83-0.17,3.25c3.56,3.92,7.13,7.83,10.7,11.74c1.18,1.29,1.75,1.31,3.06,0.12c1.24-1.12,2.47-2.24,3.7-3.37
		l5.55-5.06C228.28,307.46,233.92,302.34,233.92,302.34z"/>
	<g>
		<path d="M348.98,404.21c-0.95-0.58-1.82-1.4-2.52-2.28c-2.91-3.62-5.43-4.52-8.68-1.6c-3.86,3.48-8.38,4.47-13.06,5.56
			c-2.1,0.49-4.14,1.27-6.97,2.16c-6.62,3.92-13,8.31-18.5,13.6l4.35,4.78c4.08-3.98,8.73-7.49,13.73-10.72
			c4.6-2.97,9.83-4.16,15.15-5.03c1.4-0.23,2.75-0.45,3.99-1.22c1.68-1.05,3.06-4.07,4.75-3.21c2.37,1.22,4.47,3.23,6.81,4.78
			c1.37,0.91,1.01,8.01-0.43,9.25c-1.99,1.72-2.12,3.18-0.91,5.54c1.94,3.77,0.31,7.6-3.4,9.18c-1.32,0.55-2.84,1.18-4.07,0.5
			c-3.11-1.71-4.88,0.15-6.95,1.97c-3.44,3.03-6.84,6.1-10.24,9.17l4.28,4.71c2.82-2.51,5.63-5.03,8.45-7.54
			c1.49-1.33,2.83-1.98,5.03-1.83c8.51,0.55,15.19-6.96,13.8-15.37c-0.31-1.9-0.06-3.33,0.77-5.03
			C357.19,415.75,354.53,407.61,348.98,404.21z"/>
		<path d="M331.12,401.48c1.68-2.54,3.01-5.32,4.41-8.04c0.8-1.54,0.68-3.03-1.04-3.91c-1.67-0.85-2.99-0.22-3.85,1.32
			c-2.29,4.1-4.52,8.24-7.24,13.21C326.56,403.14,329.5,403.93,331.12,401.48z"/>
	</g>
	<path d="M288.38,507.77l17.35,19.06c15.43,16.95,41.69,18.18,58.63,2.74l77.62-70.69c17.04-15.52,18.27-41.91,2.76-58.94
		l-17.21-18.89L288.38,507.77z"/>
	<g>
		<path d="M282.13,507.28c-23.01-29.11-44.84-58.77-65.01-88.3c-0.05-0.07-0.09-0.14-0.14-0.21c4.36-2.62,11.61-7.6,21.89-16.6
			c21.8,17.92,54.11,17.61,75.58-1.94c21.72-19.78,24.87-52.46,8.41-75.9c8.36-7.85,13.77-13.91,17.18-18.16
			c4.36,3.76,8.85,7.67,13.47,11.71c25,21.88,46.6,42.46,67.5,62.94l0.9,0.99l2.75-2.5l0.41-0.37l9.16-8.34l5.32-5.13
			c-89.18-85.28-176.02-151.69-176.02-151.69c-27.19-19.67-52.98,0.57-52.98,0.57c-44.24,28.25-68.36,62.71-68.36,62.71
			c-26.11,30.91-3.07,59.44-3.07,59.44s41.29,79.29,126.39,186.69l17.44-14.99L282.13,507.28z M304.18,388.95
			c-17.37,15.82-44.27,14.56-60.08-2.81s-14.56-44.27,2.81-60.08c17.37-15.82,44.27-14.56,60.08,2.81S321.54,373.14,304.18,388.95z
			 M159.45,325.94c0,0-5.16-22.7,31.16-54.62c53.73-47.24,66.17-33.81,66.17-33.81c3.22,2.48,30.3,23.35,72.21,59.16
			c-5.64,7.14-12.39,13.2-16.37,16.52c-21.8-18.27-54.39-18.08-76,1.59c-21.88,19.92-24.91,52.92-8.06,76.4
			c-4.3,4.18-11.63,10.73-19.75,15.5C176.08,357.63,159.62,326.27,159.45,325.94z"/>
	</g>
	<g>
		<path class="st8" d="M315.86,517.05c13.84-11.6,29.53-25.45,43.02-37.52c20.55-18.49,42.9-39.08,62.69-58.29
			c0,0,3.42-3.31,3.42-3.31l3.39-3.35C401.13,438.9,342.62,492.19,315.86,517.05L315.86,517.05z"/>
		<path class="st8" d="M326.5,528.73c13.84-11.6,29.53-25.45,43.02-37.52c20.55-18.49,42.9-39.08,62.69-58.29
			c0,0,3.42-3.31,3.42-3.31l3.39-3.35C411.77,450.59,353.26,503.87,326.5,528.73L326.5,528.73z"/>
	</g>
	<path class="st8" d="M457.1,351.49l-29.78,29.71l0.02,0.02l0.19-0.17l17.21,18.89c15.52,17.04,14.28,43.43-2.76,58.95l-77.62,70.69
		c-16.95,15.43-43.2,14.21-58.63-2.74l-17.35-19.06l-0.08-0.09l-23.12,18.6l-19.34,10.23l0-0.01c5.48,6.28,54.73,60.27,100.34,29.95
		c0,0,136.35-83.1,153.67-157.9c3.76-16.23-0.06-33.28-10.02-46.63c-5.75-7.7-12.5-17.26-20.8-28.63L457.1,351.49z"/>
	<path class="st0" d="M274.1,531.94c0,0,29.74,40.56,55.17,29.58c0,0-11.23,1.89-20.33-3.82c-8.91-5.59-10.8-4.32-31.61-27.88
		l-1.48,1.19L274.1,531.94z"/>
</g>
<g>
	<g>
		<path class="st8" d="M619.57,327.63c52.36-54.82,120.06-117,201.94-174.57c0,0,35.19-39.15,123.29,41.43
			c84.16,76.98,58.64,102.39,58.64,102.39s-29.78,77.13-160.83,233.89c0,0,0,0,0,0l-20.19-11.1L801,501.25L652.94,366.43
			l-20.34-19.62l-13.01-19.17l-0.01,0.01C619.58,327.64,619.58,327.64,619.57,327.63z"/>
	</g>
	<circle class="st7" cx="811.64" cy="353.34" r="42.53"/>
	<path d="M801.72,371.69c-0.97-0.89-1.94-1.77-2.91-2.65c-0.04-0.03-0.07-0.07-0.11-0.11c-0.93-0.84-1.85-1.69-2.78-2.53
		c-0.97-0.88-1.93-1.75-2.89-2.63c-1.26-1.15-2.52-2.29-3.77-3.45c-3.21-2.96-3.42-7.27-0.51-10.48c4-4.42,7.71-8.49,11.33-12.44
		c2.95-3.22,7.17-3.4,10.49-0.45l0.16,0.14c0.06,0.05,0.11,0.1,0.16,0.15c0.1-0.11,0.2-0.22,0.32-0.35
		c0.26-0.27,0.51-0.55,0.76-0.83c0.7-0.77,1.41-1.57,2.28-2.27c4.76-3.89,11.76-3.73,16.27,0.38c0.13,0.12,0.26,0.24,0.38,0.36
		c4.59,4.55,4.98,11.96,0.9,16.88c-0.79,0.95-1.6,1.85-2.41,2.68c0.16,0.13,0.31,0.26,0.45,0.39c0.89,0.81,1.51,1.68,1.89,2.65
		c1.1,2.8,0.64,5.45-1.34,7.66c-3.17,3.53-7.35,8.18-11.62,12.75c-2.86,3.06-7.09,3.18-10.3,0.3c-1.29-1.16-2.57-2.32-3.84-3.48
		C803.66,373.46,802.69,372.58,801.72,371.69z M817.28,350.7c0,0-5.54-5.05-6.47-5.9c-1.32-1.2-2.64-2.4-3.96-3.6
		c-1.04-0.94-1.74-0.91-2.68,0.11c-3.55,3.88-7.2,7.89-11.15,12.24c-0.94,1.04-0.91,1.72,0.14,2.68c3.08,2.81,6.16,5.62,9.24,8.43
		c3.25,2.96,6.51,5.92,9.77,8.88c1.04,0.94,1.77,0.92,2.7-0.1c3.76-4.09,7.48-8.17,11.06-12.13c1.04-1.15,1-1.82-0.17-2.89
		c-1.33-1.22-2.66-2.43-3.99-3.64L817.28,350.7z M818.6,344.25c0.45,0.41,0.9,0.82,1.35,1.23l0.21,0.19
		c0.49,0.45,0.98,0.89,1.47,1.34c0.49,0.45,0.99,0.89,1.48,1.34c0.8,0.73,1.48,1.35,2.1,1.93c0.35-0.4,0.71-0.78,1.05-1.16
		c0.33-0.35,0.67-0.72,0.99-1.08c2.41-2.75,2.34-6.66-0.16-9.3c-0.11-0.12-0.23-0.23-0.35-0.34c-2.41-2.2-6.22-2.3-8.86-0.23
		c-0.65,0.51-1.21,1.14-1.81,1.81c-0.32,0.36-0.65,0.73-1,1.09c0.64,0.57,1.32,1.18,2.17,1.95
		C817.7,343.42,818.15,343.84,818.6,344.25z"/>
	<path d="M857.92,310.07c-0.98-0.89-1.95-1.79-2.93-2.68c-0.03-0.03-0.06-0.06-0.09-0.09c-0.92-0.84-1.85-1.68-2.78-2.52
		c-0.96-0.87-1.92-1.74-2.88-2.61c-1.24-1.13-2.47-2.26-3.7-3.39c-3.39-3.12-3.57-7.35-0.46-10.79c3.85-4.25,7.7-8.47,10.97-12.05
		c3.08-3.37,7.34-3.65,10.6-0.68c0.07,0.06,0.13,0.12,0.2,0.19c0.03,0.03,0.06,0.06,0.09,0.09c0.06,0.06,0.12,0.1,0.16,0.14
		c0.06-0.06,0.15-0.16,0.26-0.29c0.01-0.01,0.02-0.03,0.03-0.04l4.67-5.21c0.65-0.74,1.54-1.69,2.68-2.49
		c4.82-3.41,11.28-2.99,15.7,1.04c0.39,0.36,0.77,0.75,1.13,1.15c3.98,4.6,3.77,12.05-0.47,16.6c-0.6,0.65-2.21,2-4.12,0.64
		c-0.1-0.07-0.19-0.14-0.28-0.22c-0.44-0.4-1.73-1.9,0.27-4.29c2.47-2.94,2.47-6.7,0.01-9.36c-0.13-0.14-0.27-0.28-0.42-0.41
		c-2.41-2.19-5.98-2.35-8.7-0.38c-0.45,0.33-0.89,0.73-1.41,1.29l-4.62,5.11c-0.17,0.19-0.35,0.4-0.53,0.62
		c2.66,2.44,5.33,4.87,7.99,7.3l5.31,4.84c0.17,0.16,0.34,0.31,0.51,0.46c0.18,0.16,0.36,0.32,0.53,0.48
		c0.23,0.21,0.46,0.42,0.68,0.64c2.73,2.68,2.91,6.98,0.41,9.78c-3.86,4.31-7.86,8.7-11.88,13.05c-2.69,2.9-7.03,3.03-10.09,0.3
		c-1.16-1.04-2.4-2.16-3.91-3.52C859.88,311.86,858.9,310.96,857.92,310.07z M858.89,303.29l5.55,5.06c1.23,1.12,2.47,2.25,3.7,3.37
		c1.31,1.19,1.89,1.17,3.06-0.12c3.57-3.91,7.13-7.83,10.7-11.74c1.29-1.42,1.27-1.94-0.17-3.25c-3.07-2.8-6.14-5.59-9.21-8.39
		l-9.21-8.38c-1.42-1.29-2-1.27-3.27,0.12c-3.6,3.94-7.22,7.93-10.6,11.65c-1.28,1.41-1.24,1.96,0.19,3.27
		c1.21,1.1,2.41,2.2,3.62,3.31C853.26,298.17,858.89,303.29,858.89,303.29z"/>
	<g>
		<path d="M738.2,400.04c0.95-0.58,1.82-1.4,2.52-2.28c2.91-3.62,5.43-4.52,8.68-1.6c3.86,3.48,8.38,4.47,13.06,5.56
			c2.1,0.49,4.14,1.27,6.97,2.16c6.62,3.92,13,8.31,18.5,13.6l-4.35,4.78c-4.08-3.98-8.73-7.49-13.73-10.72
			c-4.6-2.97-9.83-4.16-15.15-5.03c-1.4-0.23-2.75-0.45-3.99-1.22c-1.68-1.05-3.06-4.07-4.75-3.21c-2.37,1.22-4.47,3.23-6.81,4.78
			c-1.37,0.91-1.01,8.01,0.43,9.25c1.99,1.72,2.12,3.18,0.91,5.54c-1.94,3.77-0.31,7.6,3.4,9.18c1.32,0.55,2.84,1.18,4.07,0.5
			c3.11-1.71,4.88,0.15,6.95,1.97c3.44,3.03,6.84,6.1,10.24,9.17l-4.28,4.71c-2.82-2.51-5.63-5.03-8.45-7.54
			c-1.49-1.33-2.83-1.98-5.03-1.83c-8.51,0.55-15.19-6.96-13.8-15.37c0.31-1.9,0.06-3.33-0.77-5.03
			C729.99,411.59,732.64,403.44,738.2,400.04z"/>
		<path d="M756.06,397.32c-1.68-2.54-3.01-5.32-4.41-8.04c-0.8-1.54-0.68-3.03,1.04-3.91c1.67-0.85,2.99-0.22,3.85,1.32
			c2.29,4.1,4.52,8.24,7.24,13.21C760.62,398.98,757.68,399.76,756.06,397.32z"/>
	</g>
	<path d="M798.8,503.6l-17.35,19.06c-15.43,16.95-41.69,18.18-58.63,2.74l-77.62-70.69c-17.04-15.52-18.27-41.91-2.76-58.94
		l17.21-18.89L798.8,503.6z"/>
	<g>
		<path d="M804.22,504.02l17.44,14.99c85.11-107.4,126.39-186.69,126.39-186.69s23.04-28.53-3.07-59.44c0,0-24.12-34.46-68.36-62.71
			c0,0-25.79-20.24-52.98-0.57c0,0-86.84,66.41-176.02,151.69l5.32,5.13l9.16,8.34l0.41,0.37l2.75,2.5l0.9-0.99
			c20.9-20.49,42.5-41.06,67.5-62.94c4.62-4.04,9.11-7.95,13.47-11.71c3.41,4.26,8.83,10.32,17.18,18.16
			c-16.46,23.44-13.31,56.12,8.41,75.9c21.47,19.55,53.78,19.86,75.58,1.94c10.27,9,17.53,13.98,21.89,16.6
			c-0.05,0.07-0.09,0.14-0.14,0.21c-20.16,29.53-42,59.18-65.01,88.3L804.22,504.02z M780.19,324.7
			c15.82-17.37,42.72-18.63,60.08-2.81c17.37,15.82,18.62,42.72,2.81,60.08s-42.72,18.63-60.08,2.81
			C765.64,368.97,764.38,342.07,780.19,324.7z M878.36,402.51c-8.12-4.78-15.45-11.33-19.75-15.5c16.85-23.48,13.82-56.47-8.06-76.4
			c-21.6-19.67-54.19-19.86-76-1.59c-3.97-3.32-10.73-9.37-16.37-16.52c41.92-35.81,68.99-56.69,72.21-59.16
			c0,0,12.43-13.43,66.17,33.81c36.32,31.93,31.16,54.62,31.16,54.62C927.56,322.1,911.1,353.46,878.36,402.51z"/>
	</g>
	<g>
		<path class="st8" d="M771.31,512.88c-13.84-11.6-29.53-25.45-43.02-37.52c-20.55-18.49-42.9-39.08-62.69-58.29
			c0,0-3.42-3.31-3.42-3.31l-3.39-3.35C686.05,434.73,744.56,488.02,771.31,512.88L771.31,512.88z"/>
		<path class="st8" d="M760.67,524.56c-13.84-11.6-29.53-25.45-43.02-37.52c-20.55-18.49-42.9-39.08-62.69-58.29
			c0,0-3.42-3.31-3.42-3.31l-3.39-3.35C675.41,446.42,733.92,499.7,760.67,524.56L760.67,524.56z"/>
	</g>
	<path class="st8" d="M630.08,347.32l29.78,29.71l-0.02,0.02l-0.19-0.17l-17.21,18.89c-15.52,17.04-14.28,43.43,2.76,58.95
		l77.62,70.69c16.95,15.43,43.2,14.21,58.63-2.74l17.35-19.06l0.08-0.09l23.12,18.6l19.34,10.23l0-0.01
		c-5.48,6.28-54.73,60.27-100.34,29.95c0,0-136.35-83.1-153.67-157.9c-3.76-16.23,0.06-33.28,10.02-46.63
		c5.75-7.7,12.5-17.26,20.8-28.63L630.08,347.32z"/>
	<path class="st0" d="M813.07,527.77c0,0-29.74,40.56-55.17,29.58c0,0,11.23,1.89,20.33-3.82c8.91-5.59,10.8-4.32,31.61-27.88
		l1.48,1.19L813.07,527.77z"/>
</g>
</svg>
