<svg width="46" height="233" viewBox="0 0 46 233" fill="none" xmlns="http://www.w3.org/2000/svg">
<path d="M36.6094 156.157C36.1113 156.157 35.6719 156.235 35.291 156.392C34.9004 156.538 34.5488 156.802 34.2363 157.183C33.9238 157.554 33.626 158.071 33.3428 158.735C33.0596 159.39 32.7715 160.22 32.4785 161.226C32.166 162.28 31.8193 163.232 31.4385 164.082C31.0479 164.932 30.6035 165.659 30.1055 166.265C29.6074 166.87 29.0361 167.334 28.3916 167.656C27.7471 167.979 27.0098 168.14 26.1797 168.14C25.3496 168.14 24.583 167.969 23.8799 167.627C23.1768 167.285 22.5664 166.797 22.0488 166.162C21.5215 165.518 21.1113 164.751 20.8184 163.862C20.5254 162.974 20.3789 161.982 20.3789 160.889C20.3789 159.287 20.6865 157.93 21.3018 156.816C21.9072 155.693 22.7031 154.839 23.6895 154.253C24.666 153.667 25.7109 153.374 26.8242 153.374V156.187C26.0234 156.187 25.3154 156.357 24.7002 156.699C24.0752 157.041 23.5869 157.559 23.2354 158.252C22.874 158.945 22.6934 159.824 22.6934 160.889C22.6934 161.895 22.8447 162.725 23.1475 163.379C23.4502 164.033 23.8604 164.521 24.3779 164.844C24.8955 165.156 25.4863 165.312 26.1504 165.312C26.5996 165.312 27.0098 165.22 27.3809 165.034C27.7422 164.839 28.0791 164.541 28.3916 164.141C28.7041 163.73 28.9922 163.213 29.2559 162.588C29.5195 161.953 29.7734 161.196 30.0176 160.317C30.3594 159.106 30.7402 158.062 31.1602 157.183C31.5801 156.304 32.0537 155.581 32.5811 155.015C33.0986 154.438 33.6895 154.014 34.3535 153.74C35.0078 153.457 35.75 153.315 36.5801 153.315C37.4492 153.315 38.2354 153.491 38.9385 153.843C39.6416 154.194 40.2422 154.697 40.7402 155.352C41.2383 156.006 41.624 156.792 41.8975 157.71C42.1611 158.618 42.293 159.634 42.293 160.757C42.293 161.743 42.1563 162.715 41.8828 163.672C41.6094 164.619 41.1992 165.483 40.6524 166.265C40.1055 167.036 39.4316 167.656 38.6309 168.125C37.8203 168.584 36.8828 168.813 35.8184 168.813V166.001C36.5508 166.001 37.1807 165.859 37.708 165.576C38.2256 165.293 38.6553 164.907 38.9971 164.419C39.3389 163.921 39.5928 163.359 39.7588 162.734C39.915 162.1 39.9932 161.44 39.9932 160.757C39.9932 159.771 39.8565 158.936 39.583 158.252C39.3096 157.568 38.919 157.051 38.4111 156.699C37.9033 156.338 37.3027 156.157 36.6094 156.157ZM35.2178 136.836V134.023C36.5654 134.17 37.7715 134.556 38.8359 135.181C39.9004 135.806 40.7451 136.689 41.3701 137.832C41.9854 138.975 42.293 140.4 42.293 142.109C42.293 143.359 42.0586 144.497 41.5899 145.522C41.1211 146.538 40.457 147.412 39.5977 148.145C38.7285 148.877 37.6885 149.443 36.4775 149.844C35.2568 150.234 33.8994 150.43 32.4053 150.43H30.2813C28.7871 150.43 27.4346 150.234 26.2236 149.844C25.0029 149.443 23.958 148.872 23.0889 148.13C22.2197 147.378 21.5508 146.475 21.082 145.42C20.6133 144.365 20.3789 143.179 20.3789 141.86C20.3789 140.249 20.6816 138.887 21.2871 137.773C21.8926 136.66 22.7324 135.796 23.8066 135.181C24.8711 134.556 26.1064 134.17 27.5127 134.023V136.836C26.5166 136.973 25.6621 137.227 24.9492 137.598C24.2266 137.969 23.6699 138.496 23.2793 139.18C22.8887 139.863 22.6934 140.757 22.6934 141.86C22.6934 142.808 22.874 143.643 23.2354 144.365C23.5967 145.078 24.1094 145.679 24.7734 146.167C25.4375 146.646 26.2334 147.007 27.1611 147.251C28.0889 147.495 29.1191 147.617 30.252 147.617H32.4053C33.4502 147.617 34.4316 147.51 35.3496 147.295C36.2676 147.07 37.0732 146.733 37.7666 146.284C38.46 145.835 39.0068 145.264 39.4072 144.57C39.7979 143.877 39.9932 143.057 39.9932 142.109C39.9932 140.908 39.8027 139.951 39.4219 139.238C39.041 138.525 38.4941 137.988 37.7813 137.627C37.0684 137.256 36.2139 136.992 35.2178 136.836ZM20.6719 130.171V123.11C20.6719 121.509 20.916 120.156 21.4043 119.053C21.8926 117.939 22.6152 117.095 23.5723 116.519C24.5195 115.933 25.6865 115.64 27.0732 115.64C28.0498 115.64 28.9434 115.84 29.7539 116.24C30.5547 116.631 31.2383 117.197 31.8047 117.939C32.3613 118.672 32.7764 119.551 33.0498 120.576L33.3574 121.367V128.003L31.0576 128.032V123.022C31.0576 122.007 30.8818 121.162 30.5303 120.488C30.1689 119.814 29.6856 119.307 29.0801 118.965C28.4746 118.623 27.8057 118.452 27.0732 118.452C26.2529 118.452 25.5352 118.613 24.9199 118.936C24.3047 119.258 23.8311 119.766 23.499 120.459C23.1572 121.143 22.9863 122.026 22.9863 123.11V127.344H42V130.171H20.6719ZM42 117.705L32.332 122.891L32.3174 119.946L41.8242 114.687H42V117.705ZM30.6621 95.2637H32.0098C33.6113 95.2637 35.0469 95.4638 36.3164 95.8642C37.5859 96.2646 38.665 96.8408 39.5537 97.5928C40.4424 98.3447 41.1211 99.248 41.5899 100.303C42.0586 101.348 42.293 102.52 42.293 103.818C42.293 105.078 42.0586 106.235 41.5899 107.29C41.1211 108.335 40.4424 109.243 39.5537 110.015C38.665 110.776 37.5859 111.367 36.3164 111.787C35.0469 112.207 33.6113 112.417 32.0098 112.417H30.6621C29.0606 112.417 27.6299 112.212 26.3701 111.802C25.1006 111.382 24.0215 110.791 23.1328 110.029C22.2344 109.268 21.5508 108.364 21.082 107.319C20.6133 106.265 20.3789 105.107 20.3789 103.848C20.3789 102.549 20.6133 101.377 21.082 100.332C21.5508 99.2773 22.2344 98.374 23.1328 97.6221C24.0215 96.8603 25.1006 96.2793 26.3701 95.8789C27.6299 95.4687 29.0606 95.2637 30.6621 95.2637ZM32.0098 98.0615H30.6328C29.3633 98.0615 28.2402 98.1933 27.2637 98.457C26.2871 98.7109 25.4668 99.0869 24.8027 99.5849C24.1387 100.083 23.6357 100.693 23.2939 101.416C22.9522 102.129 22.7813 102.939 22.7813 103.848C22.7813 104.727 22.9522 105.522 23.2939 106.235C23.6357 106.938 24.1387 107.544 24.8027 108.052C25.4668 108.55 26.2871 108.936 27.2637 109.209C28.2402 109.482 29.3633 109.619 30.6328 109.619H32.0098C33.2891 109.619 34.4219 109.482 35.4082 109.209C36.3848 108.936 37.21 108.545 37.8838 108.037C38.5479 107.52 39.0508 106.909 39.3926 106.206C39.7344 105.493 39.9053 104.697 39.9053 103.818C39.9053 102.9 39.7344 102.085 39.3926 101.372C39.0508 100.659 38.5479 100.059 37.8838 99.5703C37.21 99.0722 36.3848 98.6963 35.4082 98.4424C34.4219 98.1885 33.2891 98.0615 32.0098 98.0615ZM39.7002 78.0957H42L42 88.7597H39.7002L39.7002 78.0957ZM20.6719 88.2031H42V91.0303H20.6719V88.2031ZM39.7002 61.9238H42V72.5879H39.7002V61.9238ZM20.6719 72.0312H42V74.8584H20.6719V72.0312Z" fill="black"/>
<path d="M10.9393 232.061C11.5251 232.646 12.4749 232.646 13.0607 232.061L22.6066 222.515C23.1924 221.929 23.1924 220.979 22.6066 220.393C22.0208 219.808 21.0711 219.808 20.4853 220.393L12 228.879L3.51472 220.393C2.92893 219.808 1.97918 219.808 1.3934 220.393C0.807612 220.979 0.807612 221.929 1.3934 222.515L10.9393 232.061ZM10.5 -2.33477e-10L10.5 231L13.5 231L13.5 2.33477e-10L10.5 -2.33477e-10Z" fill="black"/>
</svg>
