<svg viewBox="0 0 1098 179" fill="none" xmlns="http://www.w3.org/2000/svg">
<path d="M60.5 178.75C49 178.75 38.6667 176.75 29.5 172.75C20.5 168.583 13.4167 162.917 8.25 155.75C3.08333 148.417 0.416667 140 0.250001 130.5H24.5C25.3333 138.667 28.6667 145.583 34.5 151.25C40.5 156.75 49.1667 159.5 60.5 159.5C71.3333 159.5 79.8333 156.833 86 151.5C92.3333 146 95.5 139 95.5 130.5C95.5 123.833 93.6667 118.417 90 114.25C86.3333 110.083 81.75 106.917 76.25 104.75C70.75 102.583 63.3333 100.25 54 97.75C42.5 94.75 33.25 91.75 26.25 88.75C19.4167 85.75 13.5 81.0833 8.5 74.75C3.66667 68.25 1.25 59.5833 1.25 48.75C1.25 39.25 3.66667 30.8333 8.5 23.5C13.3333 16.1667 20.0833 10.5 28.75 6.49999C37.5833 2.49999 47.6667 0.499992 59 0.499992C75.3333 0.499992 88.6667 4.58333 99 12.75C109.5 20.9167 115.417 31.75 116.75 45.25H91.75C90.9167 38.5833 87.4167 32.75 81.25 27.75C75.0833 22.5833 66.9167 20 56.75 20C47.25 20 39.5 22.5 33.5 27.5C27.5 32.3333 24.5 39.1667 24.5 48C24.5 54.3333 26.25 59.5 29.75 63.5C33.4167 67.5 37.8333 70.5833 43 72.75C48.3333 74.75 55.75 77.0833 65.25 79.75C76.75 82.9167 86 86.0833 93 89.25C100 92.25 106 97 111 103.5C116 109.833 118.5 118.5 118.5 129.5C118.5 138 116.25 146 111.75 153.5C107.25 161 100.583 167.083 91.75 171.75C82.9167 176.417 72.5 178.75 60.5 178.75ZM174.729 21.25V79.5H238.229V98.25H174.729V158.25H245.729V177H151.979V2.5H245.729V21.25H174.729ZM371.902 177L330.402 105.75H302.902V177H280.152V2.74999H336.402C349.569 2.74999 360.652 4.99999 369.652 9.5C378.819 14 385.652 20.0833 390.152 27.75C394.652 35.4167 396.902 44.1667 396.902 54C396.902 66 393.402 76.5833 386.402 85.75C379.569 94.9167 369.236 101 355.402 104L399.152 177H371.902ZM302.902 87.5H336.402C348.736 87.5 357.986 84.5 364.152 78.5C370.319 72.3333 373.402 64.1667 373.402 54C373.402 43.6667 370.319 35.6667 364.152 30C358.152 24.3333 348.902 21.5 336.402 21.5H302.902V87.5ZM576.252 2.74999L510.502 177H484.252L418.502 2.74999H442.752L497.502 153L552.252 2.74999H576.252ZM623.947 2.74999V177H601.197V2.74999H623.947ZM654.221 89.75C654.221 72.75 658.054 57.5 665.721 44C673.387 30.3333 683.804 19.6667 696.971 12C710.304 4.33333 725.054 0.499992 741.221 0.499992C760.221 0.499992 776.804 5.08333 790.971 14.25C805.137 23.4167 815.471 36.4167 821.971 53.25H794.721C789.887 42.75 782.887 34.6667 773.721 29C764.721 23.3333 753.887 20.5 741.221 20.5C729.054 20.5 718.137 23.3333 708.471 29C698.804 34.6667 691.221 42.75 685.721 53.25C680.221 63.5833 677.471 75.75 677.471 89.75C677.471 103.583 680.221 115.75 685.721 126.25C691.221 136.583 698.804 144.583 708.471 150.25C718.137 155.917 729.054 158.75 741.221 158.75C753.887 158.75 764.721 156 773.721 150.5C782.887 144.833 789.887 136.75 794.721 126.25H821.971C815.471 142.917 805.137 155.833 790.971 165C776.804 174 760.221 178.5 741.221 178.5C725.054 178.5 710.304 174.75 696.971 167.25C683.804 159.583 673.387 149 665.721 135.5C658.054 122 654.221 106.75 654.221 89.75ZM878.586 21.25V79.5H942.086V98.25H878.586V158.25H949.586V177H855.836V2.5H949.586V21.25H878.586ZM1039.26 178.75C1027.76 178.75 1017.43 176.75 1008.26 172.75C999.26 168.583 992.176 162.917 987.01 155.75C981.843 148.417 979.176 140 979.01 130.5H1003.26C1004.09 138.667 1007.43 145.583 1013.26 151.25C1019.26 156.75 1027.93 159.5 1039.26 159.5C1050.09 159.5 1058.59 156.833 1064.76 151.5C1071.09 146 1074.26 139 1074.26 130.5C1074.26 123.833 1072.43 118.417 1068.76 114.25C1065.09 110.083 1060.51 106.917 1055.01 104.75C1049.51 102.583 1042.09 100.25 1032.76 97.75C1021.26 94.75 1012.01 91.75 1005.01 88.75C998.176 85.75 992.26 81.0833 987.26 74.75C982.426 68.25 980.01 59.5833 980.01 48.75C980.01 39.25 982.426 30.8333 987.26 23.5C992.093 16.1667 998.843 10.5 1007.51 6.49999C1016.34 2.49999 1026.43 0.499992 1037.76 0.499992C1054.09 0.499992 1067.43 4.58333 1077.76 12.75C1088.26 20.9167 1094.18 31.75 1095.51 45.25H1070.51C1069.68 38.5833 1066.18 32.75 1060.01 27.75C1053.84 22.5833 1045.68 20 1035.51 20C1026.01 20 1018.26 22.5 1012.26 27.5C1006.26 32.3333 1003.26 39.1667 1003.26 48C1003.26 54.3333 1005.01 59.5 1008.51 63.5C1012.18 67.5 1016.59 70.5833 1021.76 72.75C1027.09 74.75 1034.51 77.0833 1044.01 79.75C1055.51 82.9167 1064.76 86.0833 1071.76 89.25C1078.76 92.25 1084.76 97 1089.76 103.5C1094.76 109.833 1097.26 118.5 1097.26 129.5C1097.26 138 1095.01 146 1090.51 153.5C1086.01 161 1079.34 167.083 1070.51 171.75C1061.68 176.417 1051.26 178.75 1039.26 178.75Z" fill="#AEAEAE"/>
</svg>
